#!OML:ASF Y:\EmotionMaleHayes\Project 1\Capture day 1\Session 1\Male1.ASF
:FULLY-SPECIFIED
:DEGREES
265
root -28.4228 16.9259 -0.00150386 11.0407 77.2267 12.5141
lowerback 1.98167 3.06654 -9.46711
upperback 3.44831 4.19701 -2.32365
thorax 1.99186 1.95486 2.8452
lowerneck -20.4262 2.64876 4.99289
upperneck 25.7711 2.15553 0.6892
head 11.918 1.65915 -0.21163
rclavicle 2.00773e-014 -9.54166e-015
rhumerus -35.9896 5.4224 -90.2122
rradius 34.7472
rwrist -4.2355
rhand -7.76639 -32.0078
rfingers 7.12502
rthumb 18.1336 -61.1825
lclavicle 2.00773e-014 -9.54166e-015
lhumerus -32.9626 -3.34048 65.998
lradius 31.1993
lwrist -7.58335
lhand -11.6496 -23.7074
lfingers 7.12502
lthumb 14.3946 5.77347
rfemur 8.80109 -1.50599 2.76021
rtibia 2.44392
rfoot -11.886 4.39118
rtoes -6.59272
lfemur 13.9083 3.69369 -20.8968
ltibia 3.28253
lfoot -17.7825 14.3956
ltoes -11.138
266
root -28.4102 16.9244 -0.0162532 8.22515 77.1174 9.6547
lowerback 2.00916 3.10831 -9.14951
upperback 3.47715 4.24557 -2.18259
thorax 2.00871 1.98119 2.81527
lowerneck -20.4743 2.66832 5.01313
upperneck 25.6486 2.1743 0.666928
head 11.881 1.66223 -0.22112
rclavicle 1.78906e-014 -3.33958e-014
rhumerus -36.1401 5.39923 -90.2182
rradius 34.8503
rwrist -5.01508
rhand -8.17494 -31.5945
rfingers 7.12502
rthumb 17.7405 -60.8052
lclavicle 1.78906e-014 -3.33958e-014
lhumerus -33.08 -3.16329 65.6264
lradius 31.4952
lwrist -7.37125
lhand -11.7856 -23.818
lfingers 7.12502
lthumb 14.2636 5.67216
rfemur 8.74212 -1.13711 3.55825
rtibia 2.41296
rfoot -11.7824 4.16941
rtoes -6.93994
lfemur 14.0416 3.60003 -20.2544
ltibia 3.22454
lfoot -17.8809 14.5853
ltoes -10.0955
267
root -28.3991 16.9219 -0.0366484 7.62786 77.0823 9.00657
lowerback 2.06589 3.08742 -9.15552
upperback 3.4552 4.21101 -2.23246
thorax 1.96124 1.96735 2.76372
lowerneck -20.5863 2.71927 5.07015
upperneck 25.6856 2.2387 0.597013
head 11.9208 1.68704 -0.24463
rclavicle 2.19657e-014 -2.70347e-014
rhumerus -36.3971 5.25664 -90.2576
rradius 35.0231
rwrist -5.64872
rhand -8.43999 -31.7104
rfingers 7.12502
rthumb 17.4854 -60.944
lclavicle 2.19657e-014 -2.70347e-014
lhumerus -33.2747 -3.02255 65.1481
lradius 31.8452
lwrist -7.21816
lhand -11.7936 -23.9643
lfingers 7.12502
lthumb 14.2559 5.52639
rfemur 8.66905 -1.04908 3.67864
rtibia 2.46504
rfoot -11.7142 4.07801
rtoes -6.00505
lfemur 13.9578 3.68049 -20.154
ltibia 3.38982
lfoot -17.9427 14.5843
ltoes -9.38293
268
root -28.3876 16.922 -0.0611866 7.98759 77.0096 9.41546
lowerback 2.25983 3.11517 -9.38019
upperback 3.40956 4.22459 -2.34153
thorax 1.79815 1.97996 2.76033
lowerneck -20.4867 2.74171 5.16291
upperneck 25.5308 2.26454 0.52389
head 11.8441 1.69431 -0.285968
rclavicle 1.15295e-014 1.19271e-014
rhumerus -36.7883 5.01809 -90.2338
rradius 35.2968
rwrist -6.28458
rhand -8.76263 -31.4897
rfingers 7.12502
rthumb 17.1749 -60.7506
lclavicle 1.15295e-014 1.19271e-014
lhumerus -33.4726 -3.14697 64.8308
lradius 32.1588
lwrist -6.86521
lhand -12.0532 -23.7786
lfingers 7.12502
lthumb 14.0057 5.72955
rfemur 8.71135 -0.989864 3.49293
rtibia 2.47305
rfoot -11.6809 4.08673
rtoes -4.35051
lfemur 13.8849 4.07088 -20.2477
ltibia 3.66516
lfoot -17.9447 14.2736
ltoes -9.44681
269
root -28.3736 16.9208 -0.0840971 7.27123 76.7947 8.68161
lowerback 2.34683 3.20713 -9.38296
upperback 3.38768 4.33587 -2.38935
thorax 1.71718 2.04027 2.70321
lowerneck -20.1803 2.76667 5.02886
upperneck 25.1115 2.32012 0.664461
head 11.6195 1.71552 -0.210523
rclavicle 8.34896e-015 6.67916e-014
rhumerus -37.1127 4.81421 -90.2153
rradius 35.5771
rwrist -7.11656
rhand -9.3086 -30.9186
rfingers 7.12502
rthumb 16.6494 -60.2245
lclavicle 8.34896e-015 6.67916e-014
lhumerus -33.6208 -3.40975 64.646
lradius 32.561
lwrist -6.37565
lhand -12.4538 -23.2233
lfingers 7.12502
lthumb 13.6197 6.31116
rfemur 8.60275 -0.995803 3.56119
rtibia 2.60707
rfoot -11.702 4.2864
rtoes -3.41086
lfemur 13.9207 4.35029 -20.1156
ltibia 3.67803
lfoot -17.9514 14.2153
ltoes -9.32753
270
root -28.3575 16.918 -0.10644 6.06245 76.6041 7.44123
lowerback 2.34473 3.2576 -9.18697
upperback 3.40939 4.4085 -2.44697
thorax 1.74968 2.07983 2.53566
lowerneck -20.3749 2.82587 5.06233
upperneck 25.1035 2.34409 0.776893
head 11.6551 1.74269 -0.16812
rclavicle 8.94531e-015 -5.24792e-014
rhumerus -37.3586 4.647 -90.3027
rradius 35.8199
rwrist -7.92634
rhand -9.94625 -30.8835
rfingers 7.12502
rthumb 16.0354 -60.24
lclavicle 8.94531e-015 -5.24792e-014
lhumerus -33.7539 -3.64996 64.4113
lradius 33.0407
lwrist -5.82544
lhand -12.8823 -22.9113
lfingers 7.12502
lthumb 13.2066 6.65038
rfemur 8.46915 -1.18311 3.70692
rtibia 2.83899
rfoot -11.6952 4.56924
rtoes -2.96216
lfemur 14.1595 4.03714 -20.0787
ltibia 3.30451
lfoot -17.9651 14.7955
ltoes -9.14174
271
root -28.3424 16.9184 -0.126749 5.61376 76.5208 7.10082
lowerback 2.4077 3.2627 -9.21264
upperback 3.48721 4.42003 -2.54731
thorax 1.80137 2.08424 2.44481
lowerneck -20.3954 2.87564 5.05634
upperneck 25.0929 2.37666 0.913859
head 11.6546 1.7746 -0.110836
rclavicle 3.18055e-015 -7.95139e-015
rhumerus -37.6285 4.45658 -90.3778
rradius 36.0464
rwrist -8.46161
rhand -10.3271 -30.9616
rfingers 7.12502
rthumb 15.6686 -60.3472
lclavicle 3.18055e-015 -7.95139e-015
lhumerus -33.9035 -3.56975 64.0846
lradius 33.5212
lwrist -5.52057
lhand -13.323 -22.8472
lfingers 7.12502
lthumb 12.7818 6.74149
rfemur 8.54795 -1.28332 3.67757
rtibia 2.93432
rfoot -11.6022 4.64477
rtoes -2.97
lfemur 14.4895 3.65264 -20.2643
ltibia 2.98731
lfoot -18.0535 15.2952
ltoes -8.66085
272
root -28.3271 16.9195 -0.1456 6.19241 76.449 7.84074
lowerback 2.59317 3.26831 -9.79834
upperback 3.54022 4.40542 -2.51286
thorax 1.71587 2.0674 2.79015
lowerneck -20.3837 2.91418 4.88049
upperneck 25.0388 2.46928 0.985363
head 11.629 1.80673 -0.0412835
rclavicle -8.15017e-015 -4.6118e-014
rhumerus -37.9959 4.39713 -90.1701
rradius 36.3072
rwrist -8.89314
rhand -10.4861 -30.4449
rfingers 7.12502
rthumb 15.5155 -59.8424
lclavicle -8.15017e-015 -4.6118e-014
lhumerus -34.216 -3.12288 63.9735
lradius 33.9709
lwrist -5.40122
lhand -13.4646 -23.1244
lfingers 7.12502
lthumb 12.6453 6.4728
rfemur 8.67087 -1.3504 3.36865
rtibia 2.97507
rfoot -11.5554 4.6917
rtoes -3.28284
lfemur 14.6002 3.85931 -20.4858
ltibia 3.1519
lfoot -18.1902 15.121
ltoes -8.28081
273
root -28.3132 16.9165 -0.162317 5.60426 76.3096 7.25916
lowerback 2.67932 3.27361 -9.9496
upperback 3.55759 4.40252 -2.52424
thorax 1.6779 2.06458 2.85605
lowerneck -20.5618 2.98759 4.94791
upperneck 25.0966 2.55405 0.923725
head 11.69 1.84283 -0.0585435
rclavicle -1.15295e-014 -7.95139e-015
rhumerus -38.2262 4.32175 -90.2184
rradius 36.5649
rwrist -9.50238
rhand -10.82 -30.242
rfingers 7.12502
rthumb 15.1939 -59.6641
lclavicle -1.15295e-014 -7.95139e-015
lhumerus -34.459 -2.8914 63.7177
lradius 34.3289
lwrist -5.06462
lhand -13.467 -23.6438
lfingers 7.12502
lthumb 12.643 5.95356
rfemur 8.58515 -1.21651 3.49705
rtibia 3.08483
rfoot -11.7462 4.54009
rtoes -3.5908
lfemur 14.5626 4.17648 -20.2865
ltibia 3.39633
lfoot -18.3567 14.8786
ltoes -8.66447
274
root -28.3008 16.9111 -0.177466 4.3147 76.1098 5.87926
lowerback 2.70652 3.32621 -9.82708
upperback 3.52875 4.46688 -2.53751
thorax 1.63314 2.10169 2.77055
lowerneck -20.7716 3.0132 5.0583
upperneck 25.1774 2.55775 0.849479
head 11.7656 1.84567 -0.0999006
rclavicle -9.54166e-015 1.90833e-014
rhumerus -38.43 4.28948 -90.3651
rradius 36.9001
rwrist -10.3909
rhand -11.4488 -31.2039
rfingers 7.12502
rthumb 14.5881 -60.6709
lclavicle -9.54166e-015 1.90833e-014
lhumerus -34.5723 -2.81702 63.5075
lradius 34.5899
lwrist -4.63847
lhand -13.9457 -23.791
lfingers 7.12502
lthumb 12.1814 5.83432
rfemur 8.35811 -1.0243 3.88825
rtibia 3.28911
rfoot -11.8818 4.31829
rtoes -3.76682
lfemur 14.5663 4.24224 -19.9658
ltibia 3.38947
lfoot -18.5468 14.8926
ltoes -8.78383
275
root -28.2876 16.9094 -0.197021 3.47921 75.9814 5.03431
lowerback 2.77176 3.37589 -9.81661
upperback 3.56175 4.52805 -2.53773
thorax 1.6247 2.13221 2.75941
lowerneck -20.8642 2.99535 5.12574
upperneck 25.0924 2.54323 0.690368
head 11.7536 1.82092 -0.172577
rclavicle -4.49253e-014 4.77083e-015
rhumerus -38.6195 4.08985 -90.2705
rradius 37.1004
rwrist -11.1269
rhand -12.1563 -30.559
rfingers 7.12502
rthumb 13.9064 -60.074
lclavicle -4.49253e-014 4.77083e-015
lhumerus -34.7864 -3.22912 63.6232
lradius 35.1781
lwrist -3.68937
lhand -14.883 -23.4301
lfingers 7.12502
lthumb 11.2776 6.24669
rfemur 8.23913 -1.09392 4.06423
rtibia 3.52963
rfoot -11.8374 4.34961
rtoes -2.6706
lfemur 14.6354 4.24906 -19.8401
ltibia 3.37762
lfoot -18.7119 14.8647
ltoes -7.75272
276
root -28.2753 16.9112 -0.217963 3.41707 75.9088 5.07546
lowerback 2.95009 3.42607 -10.0069
upperback 3.62091 4.57953 -2.60559
thorax 1.57461 2.15729 2.78149
lowerneck -20.7602 3.0071 5.16825
upperneck 24.8359 2.57166 0.603922
head 11.6371 1.81987 -0.211495
rclavicle 9.54166e-015 -3.97569e-014
rhumerus -38.796 3.49574 -89.9532
rradius 37.1977
rwrist -10.7362
rhand -11.9078 -29.4998
rfingers 7.12502
rthumb 14.1459 -58.9983
lclavicle 9.54166e-015 -3.97569e-014
lhumerus -34.8849 -4.09733 63.8481
lradius 35.5408
lwrist -2.30762
lhand -15.7655 -23.2763
lfingers 7.12502
lthumb 10.4264 6.4452
rfemur 8.2192 -1.09871 3.99356
rtibia 3.81223
rfoot -11.97 4.3653
rtoes -1.18066
lfemur 14.7612 4.26263 -19.9796
ltibia 3.42433
lfoot -18.7785 14.8918
ltoes -7.42855
277
root -28.2587 16.9125 -0.236811 3.97314 75.7998 5.75595
lowerback 3.06825 3.44657 -10.3288
upperback 3.67371 4.59914 -2.73164
thorax 1.55205 2.16406 2.81971
lowerneck -20.5966 3.07202 5.14919
upperneck 24.5871 2.65661 0.680294
head 11.5109 1.86091 -0.171423
rclavicle -1.0138e-014 2.22639e-014
rhumerus -39.0016 3.24811 -89.8762
rradius 37.3426
rwrist -10.8323
rhand -12.0015 -29.4238
rfingers 7.12502
rthumb 14.0556 -58.9285
lclavicle -1.0138e-014 2.22639e-014
lhumerus -34.6335 -4.42242 63.8923
lradius 35.2349
lwrist -1.32725
lhand -16.4167 -23.4413
lfingers 7.12502
lthumb 9.7981 6.31078
rfemur 8.20679 -1.08741 3.71779
rtibia 4.13276
rfoot -12.1953 4.29575
rtoes -2.342
lfemur 14.8846 4.38622 -20.269
ltibia 3.51275
lfoot -18.8053 14.9906
ltoes -8.36646
278
root -28.2398 16.9096 -0.255357 3.45983 75.6204 5.21224
lowerback 2.97371 3.47175 -10.3348
upperback 3.72554 4.65263 -2.77779
thorax 1.65668 2.18567 2.78144
lowerneck -20.6279 3.15137 5.21408
upperneck 24.4996 2.74576 0.667679
head 11.4874 1.90268 -0.173094
rclavicle -5.04913e-014 3.65764e-014
rhumerus -39.222 3.23154 -89.8814
rradius 37.616
rwrist -11.4191
rhand -12.1891 -29.6236
rfingers 7.12502
rthumb 13.8748 -59.1408
lclavicle -5.04913e-014 3.65764e-014
lhumerus -34.5397 -3.90886 63.7456
lradius 35.2675
lwrist -1.12392
lhand -16.8476 -23.6081
lfingers 7.12502
lthumb 9.38244 6.16305
rfemur 8.07247 -1.0881 3.83008
rtibia 4.34879
rfoot -12.3483 4.12473
rtoes -4.52535
lfemur 14.8839 4.58437 -20.1891
ltibia 3.66102
lfoot -18.9972 14.9926
ltoes -8.15046
279
root -28.2253 16.9045 -0.273126 3.40615 75.3941 5.02665
lowerback 2.85577 3.53128 -10.5036
upperback 3.72165 4.74696 -2.82328
thorax 1.70012 2.22786 2.83018
lowerneck -20.7604 3.19877 5.2253
upperneck 24.4938 2.80659 0.633949
head 11.5131 1.92512 -0.17586
rclavicle -4.41302e-014 -6.36111e-015
rhumerus -39.4999 3.20895 -89.8639
rradius 37.9987
rwrist -12.1515
rhand -12.5146 -29.9923
rfingers 7.12502
rthumb 13.5611 -59.5306
lclavicle -4.41302e-014 -6.36111e-015
lhumerus -34.7329 -2.90199 63.5647
lradius 35.7302
lwrist -1.42762
lhand -17.1853 -23.6696
lfingers 7.12502
lthumb 9.05655 6.11594
rfemur 7.78196 -1.16187 3.80835
rtibia 4.47744
rfoot -12.4801 4.12682
rtoes -4.70431
lfemur 14.7146 4.83128 -20.2223
ltibia 3.83809
lfoot -19.1112 15.0079
ltoes -7.49802
